<svg width="46" height="46" viewBox="0 0 46 46" fill="none" xmlns="http://www.w3.org/2000/svg">
<path d="M43.6234 36.2826L40.0066 33.4881C41.0186 33.3961 41.9271 32.5873 41.9271 31.4449V14.5553C41.9271 12.8801 40.0143 11.9007 38.6132 12.8609L31.4142 17.8289V26.8449L29.3116 25.2215V13.5241C29.3116 11.7895 27.9048 10.3827 26.1683 10.3827H10.1162L4.96228 6.40178C4.85305 6.31668 4.72813 6.25394 4.59465 6.21713C4.46116 6.18032 4.32174 6.17017 4.18433 6.18726C4.04692 6.20434 3.91423 6.24833 3.79383 6.31671C3.67343 6.38509 3.56767 6.47652 3.48261 6.58578L2.19461 8.24178C2.10973 8.35038 2.04714 8.47469 2.01044 8.60756C1.97373 8.74042 1.96364 8.87923 1.98074 9.01601C1.99783 9.15279 2.04179 9.28484 2.11007 9.40459C2.17835 9.52433 2.26961 9.62941 2.37861 9.71378L4.77828 11.5672L29.3097 30.5326L41.0397 39.6023C41.2602 39.7735 41.5396 39.8503 41.8166 39.8158C42.0937 39.7814 42.3457 39.6384 42.5174 39.4183L43.8054 37.7546C43.8908 37.6462 43.9538 37.5219 43.9908 37.389C44.0278 37.2561 44.038 37.1171 44.0209 36.9802C44.0038 36.8433 43.9597 36.7111 43.8911 36.5914C43.8225 36.4716 43.7309 36.3667 43.6214 36.2826H43.6234ZM4.07295 32.4742C4.07295 34.2088 5.47978 35.6156 7.21436 35.6156H26.1664C26.9024 35.6156 27.5713 35.353 28.1118 34.9256L4.07486 16.3435V32.4761L4.07295 32.4742Z" fill="black"/>
</svg>
