<?xml version="1.0" encoding="iso-8859-1"?>
<!-- Generator: Adobe Illustrator 18.0.0, SVG Export Plug-In . SVG Version: 6.00 Build 0)  -->
<!DOCTYPE svg PUBLIC "-//W3C//DTD SVG 1.1//EN" "http://www.w3.org/Graphics/SVG/1.1/DTD/svg11.dtd">
<svg version="1.1" id="Capa_1" xmlns="http://www.w3.org/2000/svg" xmlns:xlink="http://www.w3.org/1999/xlink" x="0px" y="0px"
	 viewBox="0 0 194.436 194.436" style="enable-background:new 0 0 194.436 194.436;" xml:space="preserve">
<g>
	<path d="M192.238,34.545L159.894,2.197C158.487,0.79,156.579,0,154.59,0c-1.989,0-3.897,0.79-5.303,2.196l-32.35,32.35
		c-0.004,0.004-0.008,0.01-0.013,0.014L54.876,96.608c-1.351,1.352-2.135,3.166-2.193,5.076l-1.015,33.361
		c-0.063,2.067,0.731,4.068,2.193,5.531c1.409,1.408,3.317,2.196,5.303,2.196c0.076,0,0.153-0.001,0.229-0.004l33.36-1.018
		c1.909-0.058,3.724-0.842,5.075-2.192l94.41-94.408C195.167,42.223,195.167,37.474,192.238,34.545z M154.587,61.587L132.847,39.85
		l21.743-21.743l21.738,21.741L154.587,61.587z M89.324,126.85l-22.421,0.685l0.682-22.422l54.655-54.656l21.741,21.738
		L89.324,126.85z"/>
	<path d="M132.189,117.092c-4.142,0-7.5,3.357-7.5,7.5v54.844H15.001V69.748h54.844c4.142,0,7.5-3.357,7.5-7.5s-3.358-7.5-7.5-7.5
		H7.501c-4.142,0-7.5,3.357-7.5,7.5v124.687c0,4.143,3.358,7.5,7.5,7.5h124.687c4.142,0,7.5-3.357,7.5-7.5v-62.344
		C139.689,120.449,136.331,117.092,132.189,117.092z"/>
</g>
<g>
</g>
<g>
</g>
<g>
</g>
<g>
</g>
<g>
</g>
<g>
</g>
<g>
</g>
<g>
</g>
<g>
</g>
<g>
</g>
<g>
</g>
<g>
</g>
<g>
</g>
<g>
</g>
<g>
</g>
</svg>
