<svg width="18" height="21" viewBox="0 0 18 21" fill="none" xmlns="http://www.w3.org/2000/svg">
<path d="M9.31049 16C10.5013 16 11.4755 15.1 11.4755 14C11.4755 12.9 10.5013 12 9.31049 12C8.11973 12 7.14546 12.9 7.14546 14C7.14546 15.1 8.11973 16 9.31049 16ZM15.8056 7H14.7231V5C14.7231 2.24 12.2982 0 9.31049 0C6.32275 0 3.89793 2.24 3.89793 5V7H2.81542C1.62465 7 0.650391 7.9 0.650391 9V19C0.650391 20.1 1.62465 21 2.81542 21H15.8056C16.9963 21 17.9706 20.1 17.9706 19V9C17.9706 7.9 16.9963 7 15.8056 7ZM5.9547 5C5.9547 3.29 7.45939 1.9 9.31049 1.9C11.1616 1.9 12.6663 3.29 12.6663 5V7H5.9547V5ZM15.8056 19H2.81542V9H15.8056V19Z" fill="white"/>
</svg>
