<svg width="46" height="46" viewBox="0 0 46 46" fill="none" xmlns="http://www.w3.org/2000/svg">
<path d="M23.0002 29.3076C23.8286 29.3076 24.6488 29.1444 25.4141 28.8274C26.1794 28.5104 26.8748 28.0458 27.4605 27.4601C28.0462 26.8744 28.5108 26.179 28.8278 25.4137C29.1448 24.6484 29.308 23.8282 29.308 22.9998V12.485C29.308 10.8121 28.6434 9.20768 27.4605 8.02474C26.2776 6.84181 24.6732 6.17725 23.0002 6.17725C21.3273 6.17725 19.7229 6.84181 18.54 8.02474C17.357 9.20768 16.6925 10.8121 16.6925 12.485V22.9998C16.6925 23.8282 16.8556 24.6484 17.1726 25.4137C17.4896 26.179 17.9543 26.8744 18.54 27.4601C19.7229 28.643 21.3273 29.3076 23.0002 29.3076V29.3076ZM33.5151 18.7947H32.4628C32.1842 18.7947 31.9171 18.9053 31.7201 19.1023C31.5231 19.2993 31.4125 19.5664 31.4125 19.845V22.9998C31.411 24.1749 31.1636 25.3366 30.6863 26.4103C30.2089 27.4841 29.5121 28.446 28.6408 29.2343C27.7694 30.0227 26.7427 30.6199 25.6267 30.9877C24.5107 31.3555 23.3301 31.4857 22.1607 31.3699C17.7907 30.9444 14.5899 27.0152 14.5899 22.6261V19.8469C14.5904 19.7085 14.5635 19.5713 14.5109 19.4433C14.4582 19.3153 14.3807 19.199 14.2829 19.1011C14.1852 19.0031 14.069 18.9254 13.9411 18.8725C13.8132 18.8196 13.6761 18.7925 13.5376 18.7927H12.4854C12.3471 18.7927 12.2102 18.82 12.0826 18.8731C11.9549 18.9261 11.8389 19.0038 11.7413 19.1017C11.6438 19.1997 11.5665 19.3159 11.5139 19.4438C11.4614 19.5717 11.4346 19.7087 11.4351 19.8469V22.4842C11.4351 28.3761 15.6383 33.6258 21.4228 34.4251V36.6676H17.7428C17.6047 36.6676 17.468 36.6948 17.3404 36.7477C17.2129 36.8006 17.097 36.8782 16.9994 36.9759C16.9019 37.0736 16.8246 37.1896 16.7719 37.3173C16.7192 37.4449 16.6922 37.5817 16.6925 37.7198V38.7721C16.6925 39.3528 17.1621 39.8224 17.7428 39.8224H28.2576C28.5362 39.8224 28.8034 39.7118 29.0003 39.5148C29.1973 39.3178 29.308 39.0506 29.308 38.7721V37.7198C29.3082 37.5817 29.2813 37.4449 29.2286 37.3173C29.1759 37.1896 29.0986 37.0736 29.001 36.9759C28.9035 36.8782 28.7876 36.8006 28.66 36.7477C28.5325 36.6948 28.3957 36.6676 28.2576 36.6676H24.5776V34.45C30.2107 33.6757 34.5654 28.8418 34.5654 22.9998V19.845C34.5654 19.5664 34.4547 19.2993 34.2578 19.1023C34.0608 18.9053 33.7936 18.7947 33.5151 18.7947V18.7947Z" fill="black"/>
</svg>
