<svg width="46" height="46" viewBox="0 0 46 46" fill="none" xmlns="http://www.w3.org/2000/svg">
<path d="M43.6231 36.2823L33.254 28.2668C34.1126 26.6438 34.5626 24.8359 34.565 22.9998V19.845C34.565 19.707 34.5378 19.5705 34.485 19.443C34.4322 19.3156 34.3549 19.1998 34.2573 19.1023C34.1598 19.0047 34.044 18.9274 33.9166 18.8746C33.7891 18.8218 33.6526 18.7946 33.5146 18.7946H32.4624C32.1838 18.7946 31.9166 18.9053 31.7197 19.1023C31.5227 19.2993 31.412 19.5664 31.412 19.845V22.9998C31.412 24.1766 31.1514 25.2864 30.7067 26.2984L28.9625 24.951C29.1657 24.3319 29.3095 23.686 29.3095 22.9998V12.485C29.3095 10.8118 28.6448 9.20716 27.4617 8.02405C26.2786 6.84094 24.6739 6.17627 23.0007 6.17627C21.3276 6.17627 19.7229 6.84094 18.5398 8.02405C17.3567 9.20716 16.692 10.8118 16.692 12.485V15.4673L4.96012 6.40148C4.73995 6.23032 4.46085 6.15357 4.18413 6.18807C3.9074 6.22257 3.65569 6.36551 3.48429 6.58548L2.19245 8.24531C2.02151 8.46572 1.94507 8.74497 1.97993 9.02171C2.0148 9.29845 2.15811 9.55002 2.37837 9.72114L41.0414 39.602C41.5014 39.9604 42.1607 39.878 42.5172 39.418L43.8071 37.7581C43.9783 37.538 44.055 37.2589 44.0205 36.9822C43.986 36.7054 43.8431 36.4537 43.6231 36.2823ZM28.2572 36.6676H24.5772V34.45C25.3439 34.3446 26.0799 34.151 26.789 33.9037L23.4981 31.3565C23.0573 31.3833 22.6165 31.414 22.1622 31.3699C18.4918 31.0115 15.6724 28.1729 14.8559 24.6769L11.4365 22.0319V22.4823C11.4365 28.3741 15.6398 33.6239 21.4243 34.4231V36.6656H17.7443C17.6062 36.6656 17.4695 36.6929 17.3419 36.7458C17.2143 36.7987 17.0985 36.8762 17.0009 36.974C16.9034 37.0717 16.826 37.1877 16.7734 37.3154C16.7207 37.443 16.6937 37.5798 16.694 37.7179V38.7701C16.694 39.3509 17.1635 39.8205 17.7443 39.8205H28.2591C28.3972 39.8207 28.534 39.7937 28.6617 39.7411C28.7893 39.6884 28.9053 39.6111 29.0031 39.5135C29.1008 39.416 29.1783 39.3001 29.2312 39.1725C29.2841 39.045 29.3114 38.9082 29.3114 38.7701V37.7179C29.3116 37.5796 29.2846 37.4427 29.2318 37.3149C29.179 37.1871 29.1015 37.071 29.0037 36.9733C28.906 36.8755 28.7899 36.798 28.6621 36.7452C28.5343 36.6924 28.3974 36.6654 28.2591 36.6656L28.2572 36.6676Z" fill="black"/>
</svg>
